<svg xmlns="http://www.w3.org/2000/svg" xml:space="preserve" width="200" height="200" viewBox="0 0 52.92 52.9"><path fill="#1c1e21" d="M11.424 40.52c-4.7-.647-7.067-6.099-4.277-9.964l.258-.364v-9.976c0-6.65 0-10.058.118-10.234.117-.388.493-.87.905-1.128l.364-.224h15.933V7.588c.117-2.352-.188-2.282 7.72-2.247h5.992l.294.165c.352.188.634.47.822.837.13.235.141.517.165 4.332 0 4.488 0 4.653-.4 5.182l-.246.329V35.96l-.212.364c-.27.411-.74.799-1.128.905-.188 0-3.548.117-10.07.117h-9.8l-.187.318c-1.175 1.985-3.83 3.23-6.193 2.914z"/><path fill="#ff6969" d="M12.893 39.345c6.25-.87 5.687-10.223-.623-10.223-6.51 0-6.874 9.612-.376 10.246h.352s.341 0 .647-.117z"/><path fill="#1c1e21" d="m10.014 37.112-.176-.188v-2.667c0-2.879 0-2.855.387-2.996.259-.118.118-.165 2.832 1.269 3.455 1.821 3.455 1.621-.117 3.513-2.468 1.316-2.632 1.375-2.938 1.07z"/><path fill="#fff" d="M13.128 34.621c.787-.4.916-.246-.976-1.233l-1.14-.6v2.95l.753-.412a87 87 0 0 1 1.363-.705"/><path fill="#eafaff" d="m37.626 35.855.247-.247V16.456H30.33l-1.281 1.292c-1.293 1.293-1.493 1.434-1.786 1.281-.318-.176-.353-.27-.353-1.445v-1.128h-.458c-1.246 0-1.75-.693-1.75-2.397v-.987h-6.393l-.458.681c-.247.376-.505.729-.564.776-.118.117-1.093.117-4.406.117h-4.3v14.512l.21-.153c2.362-1.669 6.146-1.21 8.108.999 1.457 1.633 2.08 4.312 1.422 6.039 0 .118 1.798.118 9.506.118h9.552z"/><path fill="#1c1e21" d="m10.683 25.915-.188-.177v-8.765l.365-.364h4.958c5.335 0 5.123 0 5.276.399.118.27.118 8.425 0 8.695-.153.411 0 .388-5.276.4H10.86z"/><path fill="#fff" d="m15.113 23.988-.94-.94-.705.74c-.376.4-.763.822-.846.928l-.14.211h3.571zM19.99 24.293v-.634l-1.081-1.14-1.093-1.14-.682.729c-.376.387-.763.822-.87.951l-.187.247.764.799.763.81h2.386z"/><path fill="#9dd46f" d="M13.221 22.366c.882-.94.976-.963 1.61-.352l.435.41.893-.974c1.716-1.857 1.516-1.822 2.855-.482l.976.975v-4.16h-8.32V24l.423-.435c.224-.246.729-.787 1.117-1.198z"/><path fill="#1c1e21" d="M14.068 21.18a1.52 1.52 0 0 1-.846-1.681c.258-1.222 1.797-1.61 2.632-.658 1.045 1.198-.33 2.996-1.786 2.338"/><path fill="#fff" d="M14.902 20.098c.376-.27 0-.846-.388-.587-.294.188-.153.705.176.705 0 0 .118-.118.212-.118"/><path fill="#f7d119" d="M34.043 15.293c4.136 0 4.183 0 4.324-.165.164-.188.258-7.693.117-8.233-.13-.447.118-.435-6.392-.411H26.17l-.141.164c-.13.176-.141.353-.141 4.25 0 4.83-.118 4.36 1.046 4.36 1.034 0 1.163.129 1.163 1.116v.681l.893-.881.881-.881z"/><path fill="#1c1e21" d="M30.071 14.564c-.118-.117-.2-.329-.329-.94-.118-.446-.2-.881-.212-.963 0-.118-.117-.165-.329-.2-.728-.118-.893-.458-.893-1.939 0-1.88 0-1.927 2.538-1.927 2.186 0 3.878-.27 3.972-.62.176-.634.212-.704.411-.81.27-.141.54-.117.74.165.224.293.224 6.141 0 6.435-.34.423-.975.188-1.069-.4-.117-.434-.787-.716-2.15-.845l-.529-.118v.964c0 1.257 0 1.269-1.151 1.269-.682 0-.846 0-.987-.13z"/><path fill="#72d1fb" d="M34.936 10.522V9.277l-.576.176c-.306.117-.929.223-1.363.27l-.788.118v1.504h.318c.411 0 1.492.188 1.868.317.564.211.54.27.54-1.105z"/><path fill="#ff6969" d="M31.035 10.522v-.775h-1.551v1.55h1.55z"/><path fill="#c4daec" d="M17.005 12.872c.235-.352.494-.717.576-.81l.153-.165H24.7V9.77H9.086l-.247.259-.259.246v3.243h8.002z"/><g fill="#1c1e21"><path d="M10.53 12.014c-.41-.423 0-1.092.588-.951.623.164.47 1.128-.176 1.128-.141 0-.294-.118-.411-.177M12.493 12.014c-.47-.517.153-1.28.717-.881.482.329.258 1.034-.33 1.046-.14 0-.281-.118-.387-.165M14.432 12.014c-.411-.423 0-1.08.564-.951.646.14.517 1.128-.153 1.128-.141 0-.294-.118-.411-.177"/></g><path fill="#1c1e21" d="M32.66 51.393a2.59 2.59 0 0 1-2.382-1.571c-.161-.366-.161-.366-.422-.378-.656.012-1.498-.459-1.963-1.05-.23-.327-5.312-18.93-5.368-19.672-.045-1.01.016-1.088 3.06-4.685 3.043-3.552 3.206-3.692 4.311-3.699.53-.005.438-.046 4.44 1.377 4.407 1.562 4.475 1.584 4.89 2.373.06.148.169.323.203.376.015.057.32.2.657.315.815.293 1.178.503 1.564.952.509.6 5.587 19.572 5.447 20.346-.174.803-.666 1.487-1.364 1.858-.49.234-12.63 3.463-13.072 3.458"/><path fill="#967e32" d="M45.628 46.859c.265-.235.456-.593.513-.915.098-.395-4.905-19.086-5.189-19.46-.186-.236-.656-.54-.96-.602-.153-.04-.153-.04 2.178 8.666 1.665 6.224 2.355 8.8 2.354 9.026.05.948-.391 1.823-1.165 2.296-.351.217-.518.282-6.264 1.82l-5.91 1.582.1.22c.242.548.798.91 1.413.93.44.025 12.737-3.369 12.93-3.563"/><path fill="#d7ba5e" d="M43.055 44.888c.279-.259.497-.665.534-1.064.027-.355-4.963-18.92-5.17-19.233-.275-.418-.598-.556-4.369-1.879-5.01-1.78-4.082-2.03-7.572 2.068-2.647 3.081-2.69 3.155-2.778 3.546-.08.308 4.812 18.94 5.086 19.42.189.318.58.58.99.676.546.14 12.85-3.153 13.28-3.534"/><g fill="#2e2713"><path d="M35.54 32.555c-.409-.227-.373-.398.338-1.64l.641-1.12-1.113-.642c-1.211-.704-1.327-.833-1.14-1.206.245-.459.356-.425 1.955.505 1.862 1.07 1.789.798.728 2.641-.936 1.625-1.018 1.702-1.41 1.462M31.578 33.636a.75.75 0 0 1-.227-.212c-.088-.154.884-4.96 1.03-5.104.257-.263.703-.124.803.25.07.263-.817 4.742-.981 4.94-.159.187-.442.246-.625.126M28.362 33.508c-1.909-1.095-1.845-.887-.742-2.774.907-1.585.953-1.628 1.364-1.384.42.248.393.36-.334 1.632l-.647 1.129 1.124.654c1.247.728 1.34.83 1.12 1.21-.242.42-.38.384-1.885-.467M38.769 38.2c-.303-.062-.363-.21-.66-1.317-.24-.897-.294-1.026-.37-1.005-.497.132-.66-.478-.297-1.108.644-1.109.911-.876 1.503 1.337.516 1.928.498 2.24-.176 2.093M35.228 39.188c-1.552.13-2.573-2.727-1.346-3.73 1.006-.828 2.157-.271 2.585 1.25.389 1.452-.08 2.375-1.239 2.48m.235-1.187c.297-.264.042-1.526-.332-1.773-.537-.327-.865.129-.694.922.212.945.601 1.25 1.026.85M32.308 39.909c-.298-.064-.364-.19-.668-1.294-.24-.898-.276-1.031-.358-1.01-.18.049-.458-.183-.52-.412-.153-.573.675-1.44 1.107-1.176.259.155 1.128 3.4.976 3.646-.133.22-.34.316-.537.246M29.831 40.592c-.282-.067-.31-.142-.62-1.266-.255-.955-.31-1.083-.388-1.062-.15.04-.52-.23-.56-.382-.118-.439.628-1.343 1.04-1.25.256.064 1.161 2.87 1.112 3.497-.02.313-.308.533-.584.463M40.25 43.654c-.317-.037-.383-.204-.679-1.311-.27-1.012-.27-1.012-.477-1.018-.572-.072-.5-.95.123-1.527.496-.44.663-.198 1.18 1.73.53 1.986.53 2.211-.147 2.126M37.874 44.331c-.36.035-.428-.07-.74-1.234-.291-1.088-.291-1.088-.503-1.113-.581-.11-.539-1.022.105-1.521.544-.412.721-.132 1.222 1.739.49 1.832.48 2.1-.084 2.13M34.192 45.296c-1.57.134-2.567-2.81-1.276-3.75 1.06-.775 2.138-.204 2.547 1.323.383 1.432-.09 2.336-1.271 2.427m.4-1.416c.146-.653-.432-1.705-.86-1.59-.652.174-.283 2.06.379 1.985.206-.015.445-.201.481-.395M31.415 46.06c-.359.035-.42-.072-.732-1.236-.29-1.088-.29-1.088-.506-1.112-.591-.108-.547-.959.08-1.495.539-.45.74-.178 1.247 1.712.49 1.833.482 2.101-.089 2.131"/></g><path fill="#1c1e21" d="M30.588 26.518c-1.155-.059-1.83-1.382-1.194-2.36a1.497 1.497 0 0 1 2.724.425c.273 1.02-.491 1.987-1.53 1.935"/><path fill="#967e32" d="M31.011 25.344c.379-.343.025-.978-.466-.847a.495.495 0 0 0-.249.814c.218.238.477.25.715.033"/></svg>