<svg xmlns="http://www.w3.org/2000/svg" xml:space="preserve" width="200" height="200" viewBox="0 0 52.92 52.9"><path fill="#1c1e21" d="M8.082 39.01c-.688-.22-1.227-.79-1.365-1.5 0-.25-.138-3.76 0-12.25v-11.9l.161-.49c.183-.55.699-1.05 1.227-1.19l.401-.12h5.484v-1.45c0-1.402 0-1.46.22-1.827.12-.195.31-.47.46-.585.55-.447.34-.435 7.46-.413h6.47l.29.161c.69.356.97.86 1.03 1.675v.562h6.03c6.7 0 6.39-.02 6.96.477.3.22.43.49.47.85V24.3l-.13.28c-.21.37-.52.68-.86.86-.24.13-.48.13-1.78.15-.81 0-1.48 0-1.48.13 0 .15-2.4 11.63-2.49 11.89-.18.54-.59 1-1.16 1.29l-.48.24H21.7c-11.04 0-13.354 0-13.618-.13"/><g stroke-width="1.283"><path fill="#7f8e94" d="M37.2 12.39v-1.53h-3.66v3.06h3.68z"/><path fill="#3a94bc" d="M18.12 15.37c.33-.24.8-.27 1.2-.14.25.14.5.38 1.34 1.41.59.72 1.07 1.28 1.09 1.28 0 0 .5-.54 1.04-1.21.54-.65 1.09-1.27 1.21-1.36.33-.24.82-.28 1.21-.13.26.13.49.35 1.21 1.25l.9 1.09v-3.3c0-3.58 0-3.51.46-4.03.12-.13.33-.306.48-.375l.27-.149v-.482c0-.505-.12-.654-.33-.792-.21-.137-12.5-.137-12.78 0-.4.15-.4.138-.4 5.498v4.93s.67-.76 1.42-1.69z"/><path fill="#607d8b" d="M37.2 17.59v-2.44h-3.75v4.89h3.75z"/><path fill="#3f9c4a" d="M32.26 15.43v-4.6h-1.65c-1.61 0-1.65 0-1.81.18l-.16.18v8.84h3.67z"/></g><g fill="#1c1e21" stroke-width="1.283"><path d="M30.02 13.12c-.43-.41-.13-1.1.52-.99.45 0 .61.59.32.95-.18.25-.6.27-.84 0zM30.17 15.67c-.24-.13-.41-.45-.34-.67.14-.44.77-.59 1.03-.25.41.52-.12 1.18-.69.92M30.17 18.12c-.36-.2-.42-.61-.12-.95.33-.36.98-.12.98.44 0 .42-.5.72-.87.51z"/></g><g stroke-width="1.283"><path fill="#7f8e94" d="M27.36 19.78c0-.21-.26-.55-1.3-1.84l-1.3-1.57-.2.19c-.12.13-.59.69-1.1 1.31l-.89 1.1.43.53.44.54h3.95z"/><path fill="#9e9e9e" d="M21.71 19.9c-1-1.26-2.85-3.45-2.9-3.43-.13 0-2.94 3.54-2.94 3.58h5.98z"/><path fill="#3f9c4a" d="m42.02 24.3.12-.31V11.33l-.12-.27-.24-.13h-3.33v9.53l.3.22c.38.27.75.86.85 1.38.13.39 0 .77-.27 2.19v.19h2.4z"/></g><g fill="#1c1e21" stroke-width="1.283"><path d="M39.78 13.16c-.51-.5.18-1.28.78-.87.23.13.31.48.17.74-.19.36-.66.43-.95.13M40.05 15.81c-.22 0-.45-.37-.45-.62 0-.46.68-.75 1.01-.41.43.42 0 1.13-.56 1.03M40.05 18.23c-.38-.17-.49-.68-.21-.98.3-.3.76-.23.95.13.26.5-.23 1.05-.74.85M39.9 20.57c-.44-.38-.21-1.05.37-1.05.34 0 .65.36.59.68 0 .28-.23.45-.51.52-.18 0-.28 0-.45-.15"/></g><g stroke-width="1.283"><path fill="#ba8f51" d="M8.747 26.15c1.01-4.8 1.044-4.95 1.583-5.42.14-.13.44-.31.65-.41.37-.17.49-.18 1.64-.21h1.25V12.8h-2.58c-2.554 0-2.577 0-2.898.16a1.4 1.4 0 0 0-.471.48l-.172.33v17.01s.448-2.13.952-4.58z"/><path fill="#cdba32" d="M34.83 37.8c.17-.14.34-.26.44-.39.12-.18.57-2.34 1.66-7.61 1.4-6.74 1.51-7.39 1.44-7.65-.12-.37-.4-.66-.76-.76-.21-.12-4.04-.12-13.16-.12-12.78 0-12.85 0-13.1.17-.14.13-.31.24-.38.36-.12.2-3.221 14.93-3.221 15.28 0 .23.207.53.448.66.218.12 1.376.12 13.293.12 12.56 0 13.04 0 13.34-.12z"/><path fill="#1c1e21" d="M12.53 29.12c-.31-.18-.49-.45-.57-.81-.13-.32.72-4.12.92-4.51.13-.18.27-.34.48-.45l.32-.16h3.9c4.28 0 4.21 0 4.56.43.42.47.42.55-.12 2.87-.35 1.72-.47 2.14-.62 2.34-.36.48-.24.47-4.66.47h-3.98z"/><path fill="#f5f5f5" d="M20.85 26.38c.19-.9.35-1.73.39-1.82v-.15h-7.37l-.37 1.81-.37 1.83h7.33z"/><path fill="#1c1e21" d="M17.93 13.86c-.58-.2-1.12-.63-1.38-1.13-.21-.39-.26-1.2-.13-1.67.13-.2.24-.51.4-.68.64-.732 1.68-.95 2.53-.525a2.05 2.05 0 0 1 1.19 1.775c.12 1.21-.77 2.18-1.99 2.26h-.65z"/><path fill="#ffdf00" d="M18.94 12.53c.44-.29.57-.81.29-1.25-.31-.51-.97-.57-1.41-.13-.21.21-.24.29-.24.59 0 .4.13.62.46.82.3.17.62.17.9 0z"/></g><path fill="#4793ff" fill-opacity=".576" d="M33.962 39.813c3.195-.405 5.816-2.687 6.598-5.803 1.083-4.134-1.434-8.359-5.594-9.428-2.699-.691-5.516.143-7.472 2.126a7.6 7.6 0 0 0-1.969 3.481c-.86 3.39.652 6.911 3.717 8.672a7.75 7.75 0 0 0 4.72.952"/><path fill="#8f8f8f" d="M34.04 40.165A8.15 8.15 0 0 0 40.94 34.1c1.121-4.33-1.513-8.75-5.855-9.858a8.1 8.1 0 0 0-7.811 2.23c-1.043 1.043-1.682 2.217-2.06 3.612-.9 3.56.677 7.237 3.885 9.089 1.46.834 3.247 1.186 4.942.99m-1.916 1.16c-1.526-.17-3.156-.782-4.473-1.72-.665-.457-1.617-1.41-2.087-2.074-.704-.991-1.33-2.387-1.564-3.521-.235-1.174-.235-2.647 0-3.834.234-1.108.847-2.504 1.564-3.495.47-.678 1.409-1.617 2.087-2.099.99-.704 2.4-1.33 3.508-1.539 1.173-.26 2.66-.26 3.833 0 1.135.209 2.53.835 3.521 1.539.665.482 1.617 1.421 2.074 2.1.717.99 1.343 2.386 1.564 3.494.248 1.187.248 2.66 0 3.834-.221 1.134-.847 2.53-1.564 3.52-.21.275-.626.783-.952 1.096a9.17 9.17 0 0 1-7.511 2.7"/><g stroke-width=".417"><path fill="#1c1e21" d="M34.21 41.247c2.725-.365 5.086-1.839 6.585-4.134 1.591-2.438 1.93-5.398.926-8.189-.887-2.477-2.986-4.564-5.464-5.463-1.095-.405-1.956-.548-3.168-.548-1.226 0-2.087.143-3.182.548-2.49.9-4.577 2.986-5.477 5.463-.391 1.109-.535 1.97-.535 3.182s.144 2.073.535 3.169c.9 2.49 2.986 4.564 5.477 5.464.821.3 1.343.417 2.49.547h1.813zm12.297 6.755c-.144-.13-.365-.13-.483-.196-.156-.13-1.369-1.239-3.755-3.638l-3.547-3.534-.326.209c-1.604 1.017-3.769 1.578-5.725 1.486-2.62-.13-4.981-1.173-6.82-3.012-1.538-1.539-2.516-3.455-2.895-5.66-.13-.703-.13-2.399 0-3.116.379-2.203 1.357-4.12 2.895-5.66s3.456-2.516 5.673-2.894c.704-.13 2.412-.13 3.116 0 3.756.639 6.781 3.143 8.059 6.65 1.056 2.895.717 6.26-.874 8.776l-.208.326 3.534 3.547c3.86 3.847 3.729 3.704 3.86 4.434.13.587-.131 1.29-.561 1.734-.287.287-.548.43-.965.548-.352.13-.626.13-.978 0"/><path fill="#1c1e21" d="M33.923 39.213a7.17 7.17 0 0 0 6.09-5.347c.99-3.82-1.33-7.72-5.164-8.697-2.49-.64-5.099.13-6.898 1.956a7 7 0 0 0-1.813 3.208c-.795 3.13.6 6.376 3.43 8.006a7.13 7.13 0 0 0 4.355.874m-1.682 1.03c-1.356-.143-2.79-.691-3.951-1.513-.587-.417-1.422-1.251-1.839-1.838-.626-.874-1.173-2.1-1.382-3.104a9.2 9.2 0 0 1 0-3.377c.209-.991.743-2.217 1.382-3.09.417-.6 1.239-1.422 1.839-1.852.874-.626 2.112-1.174 3.103-1.37a8.7 8.7 0 0 1 3.378 0c1.004.196 2.23.744 3.103 1.37.587.43 1.422 1.252 1.839 1.851.626.874 1.173 2.1 1.382 3.09a9.2 9.2 0 0 1 0 3.378c-.209 1.004-.756 2.23-1.382 3.104-.183.248-.56.69-.848.978a8.14 8.14 0 0 1-6.624 2.373"/><path fill="#6e6e6e" d="M47.472 46.933c.3-.157.521-.47.547-.796 0-.508.13-.456-2.451-3.012l-2.36-2.36-.73.717-.73.73 2.307 2.321c1.46 1.46 2.387 2.347 2.517 2.413.274.143.626.13.9 0z"/><path fill="#434343" d="M41.76 40.778c.378-.392.691-.718.691-.744 0 0-.326-.339-.717-.73l-.704-.717-1.46 1.46.717.705c.39.39.717.717.73.717 0 0 .352-.313.743-.691"/></g><path fill="#525252" fill-opacity=".557" d="M38.226 30.58c-.156 0-.313-.195-.404-.443-.482-1.082-1.37-2.034-2.386-2.556-.717-.365-1.213-.508-2.087-.587-.417 0-.495 0-.626-.182a.49.49 0 0 1 0-.678c.144-.144.17-.144.665-.144 2.035 0 4.134 1.37 5.1 3.247.312.613.377.835.299 1.043 0 .13-.13.196-.13.21-.13.13-.34.13-.444.13zM38.54 32.562a.498.498 0 0 1-.17-.808c.313-.3.821-.13.821.352 0 .34-.352.587-.652.456"/></svg>