<?xml version="1.0" encoding="UTF-8"?>
<svg width="200" height="200" version="1.1" viewBox="0 0 200 200" xmlns="http://www.w3.org/2000/svg"><defs><style>.cls-1 {
        fill: #393939;
      }

      .cls-2 {
        fill: #654ff0;
      }</style></defs><title>typescript-logo</title><g data-name="Layer 2"><path d="m41.3 41.33v117.27h117.3v-117.27z" fill="#3178c6" stroke="#1c1e21" stroke-linecap="round" stroke-linejoin="round" stroke-width="3.9274" style="paint-order:markers fill stroke"/><path d="m111.6 147c2.1 0.7 4.3 1.7 6.9 2.1 2.7 0.6 5.5 0.8 8.7 0.8 2.8 0 5.5-0.2 8.1-0.8 2.8-0.6 4.8-1.5 6.8-2.7 2.1-1.4 3.8-2.9 4.9-5.1 1.1-2 1.5-4.8 1.5-7.5 0-2.5-0.1-4.3-0.7-5.7-0.7-1.7-1.6-3.1-2.8-4.3-1.2-1.7-3.1-2.7-4.9-3.8-1.5-1.1-3.5-1.9-5.7-2.6-1.5-0.8-3.1-1.4-4.3-2-1.2-0.8-2.4-1.4-2.9-1.9-1.2-0.7-2-1.2-2.3-2.1-0.5-0.6-0.9-1.7-0.9-2.5 0-0.9 0.4-1.5 0.9-2 0.3-0.9 0.9-1.2 2-2.1 0.6-0.2 1.7-0.8 2.6-0.9 1.2-0.2 2.3-0.5 4-0.5 0.9 0 1.8 0 3.1 0.3 0.9 0.2 2.1 0.3 3.3 0.8 1 0.3 2.2 0.6 3.6 1.2 1 0.3 1.8 0.9 2.7 1.7v-11.32c-1.7-0.81-4-1.21-6.1-1.61-2-0.41-4.3-0.61-7.4-0.61-3 0-5.5 0.2-8.3 1.01-2.3 0.4-4.9 1.4-6.9 2.81-1.6 1.19-3.5 3.32-4.3 4.92-1.2 2.2-1.6 4.6-1.6 7.4 0 3.7 0.9 6.6 2.9 9.4 2 2.1 5.2 4.6 9.3 6.4 1.9 0.6 3.4 1.4 4.8 1.9 1.4 0.7 2.4 1.2 3.7 2.1 1.2 0.8 1.8 1.1 2.7 2.3 0.3 0.6 0.8 1.7 0.8 2.9 0 0.8-0.5 1.4-0.6 2-0.2 0.6-1.1 1.2-1.7 1.5-0.8 0.8-2 1.1-3.2 1.4-1 0.3-2.2 0.3-3.7 0.3-2.8 0-5.4-0.3-7.8-1.5-2.8-0.5-5.1-2.2-7.2-3.8z" fill="#fbfcfe" stroke-width=".46554"/><path d="m106.6 103.9v-10.04h-42.97v10.04h15.31v44.5h12.27v-44.5z" fill="#fbfcfe" stroke-width=".46554"/></g></svg>
