<svg xmlns="http://www.w3.org/2000/svg" viewBox="0 0 512 512"><g style="fill-rule:evenodd"><path d="M471.93 253.06c0 120.9-98.01 218.9-218.9 218.9-120.9 0-218.9-98.01-218.9-218.9 0-120.9 98.01-218.9 218.9-218.9 120.9 0 218.9 98.01 218.9 218.9" style="fill:#484043"/><path d="M162.31 35.719a250.5 250.5 0 0 0-38.781 26.625v383.94c13.817 11.537 28.893 21.629 45 30V35.724h-6.219" style="fill:#0078ad"/><path d="M79.13 110.53c-25.892 36.764-42.12 80.81-45 128.47v30.625c2.878 47.66 19.11 91.7 45 128.47v-287.56" style="fill:#d23638"/><path d="M123.72 62.19a251.4 251.4 0 0 0-45 48.938v286.38a251.4 251.4 0 0 0 45 48.938V62.196" style="fill:#68af4c"/><path d="M72.25.282C32.504.282.283 32.502.283 72.249s32.22 71.967 71.967 71.967 71.967-32.22 71.967-71.967S111.997.282 72.25.282m2.491 12.681c34.12 0 61.777 27.657 61.777 61.777s-27.657 61.777-61.777 61.777S12.955 108.86 12.955 74.74s27.666-61.777 61.786-61.777" style="fill-opacity:.06700003" transform="translate(-.003)scale(3.5433)"/><g style="fill-opacity:.12900002"><path d="M256 4.433C117.067 4.433 4.433 117.063 4.433 256c0 138.933 112.63 251.567 251.567 251.567 138.933 0 251.567-112.63 251.567-251.567C507.567 117.067 394.937 4.433 256 4.433m5.885 38.554c120.898 0 218.895 97.997 218.895 218.895 0 120.897-97.997 218.894-218.895 218.894-120.897 0-218.926-97.997-218.926-218.894S140.988 42.987 261.885 42.987"/><path d="M256 8.355C119.229 8.355 8.355 119.225 8.355 256c0 136.771 110.87 247.645 247.645 247.645 136.771 0 247.645-110.87 247.645-247.645C503.645 119.229 392.775 8.355 256 8.355m2.94 31.691c120.898 0 218.895 97.998 218.895 218.895s-97.997 218.894-218.894 218.894S40.015 379.838 40.015 258.941 138.044 40.046 258.94 40.046"/></g><path d="M71.41 2.218c-38.22 0-69.2 30.981-69.2 69.2s30.981 69.2 69.2 69.2 69.2-30.981 69.2-69.2-30.981-69.2-69.2-69.2zm0 7.422c34.12 0 61.777 27.657 61.777 61.777s-27.657 61.777-61.777 61.777S9.624 105.537 9.624 71.417 37.29 9.64 71.41 9.64" style="fill:#fff;stroke:#000;stroke-width:1.38399994;stroke-opacity:.31000001" transform="translate(-.003)scale(3.5433)"/></g><g style="fill-rule:evenodd"><path d="M251.23 89.47c-7.095.073-14.373.477-21.813 1.25l159.08 159.08v.002c.105 2.218.157 4.436.168 6.654l-66.902-66.902c-17.924-17.924-43.4-29.698-74.848-29.334-3.02.035-6.089.204-9.219.469l78.35 78.35c2.357 13.827 1.937 28.14-1.123 41.803l-27.955-27.955c-1.61-27.13-24.11-48.639-51.65-48.639-28.582 0-51.75 23.17-51.75 51.75 0 28.582 23.17 51.75 51.75 51.75l35.699 35.699c-10.08 5.934-21.698 10.05-34.793 11.707l51.969 51.969c-18.19 7.875-38.718 13.243-61.47 15.406l48.33 48.33c110.55-11.05 196.87-104.34 196.87-217.8 0-8.656-.519-17.189-1.496-25.582l-86.75-86.74c-31.23-31.23-76.37-51.841-132.46-51.26" style="opacity:.25"/><path d="M251.23 89.47c-7.095.073-14.373.477-21.813 1.25 226.04 41.723 199.07 312.63-2.688 331.81 296.15-11.654 244.45-335.34 24.5-333.06m-4.313 70.75c-3.02.035-6.089.204-9.219.469 113.4 22.656 99.82 181.63-1.469 194.47 166.75-3.403 136.55-196.4 10.688-194.94m-11.594 44.03c-28.582 0-51.75 23.17-51.75 51.75 0 28.582 23.17 51.75 51.75 51.75 28.582 0 51.75-23.17 51.75-51.75 0-28.582-23.17-51.75-51.75-51.75m-.031 13.688c18.512 0 29.469 7.644 29.469 20.344 0 8.933-4.935 15.723-14.406 19.813-7.534 3.336-8.844 4.855-8.844 10.344v.844h-10.75c-.215-1.292-.219-1.917-.219-3.531 0-7.857 1.411-10.445 9.375-16.688 3.552-2.906 5.25-6.132 5.25-10.438 0-6.888-4.522-11.313-11.625-11.313-5.812 0-10.969 2.705-10.969 5.719 0 .753.014.736.875 2.781.323.861.75 2.799.75 3.875 0 4.736-3.771 8.188-8.938 8.188-5.812 0-9.375-3.758-9.375-10 0-11.301 12.724-19.938 29.406-19.938m1.281 56.19c5.597 0 10 4.417 10 9.906s-4.511 10-10 10-9.906-4.514-9.906-10.219c0-5.274 4.525-9.688 9.906-9.688" style="fill:#fff"/></g></svg>