<svg xmlns="http://www.w3.org/2000/svg" width="200" height="200"><g data-name="Layer 2"><path fill="#654ff0" stroke="#1c1e21" stroke-linecap="round" stroke-linejoin="round" stroke-width="2.56" d="M108.7 61.73v.42c0 4.85-3.9 8.78-8.7 8.78a8.77 8.77 0 0 1-8.8-8.78v-.42H61.7v76.47h76.5V61.73z" style="paint-order:markers fill stroke" transform="translate(-53.35 -53.36)scale(1.534)"/><path fill="#fff" d="m140.24 146.213-2.76-9.204h-14.113l-1.994 9.204h-7.67l9.97-41.571H136.1l12.119 41.571zM97.335 146.213l-5.676-28.225h-.153l-6.182 28.225H77.47l-8.944-41.571h7.747l5.354 28.226h.153l6.443-28.226h7.302l5.599 28.686h.153l5.983-28.686h7.67l-9.818 41.571z"/><path fill="#654ff0" d="m131.65 114.92 3.989 15.34h-10.585l3.375-15.34z"/></g></svg>