<?xml version="1.0" encoding="UTF-8"?>
<svg width="200" height="200" version="1.1" viewBox="0 0 52.92 52.9" xml:space="preserve" xmlns="http://www.w3.org/2000/svg"><g><g transform="matrix(1.175,0,0,1.175,-6.448,-3.437)"><path d="m15.21 37.41c-4-0.55-6.014-5.19-3.64-8.48l0.22-0.31v-8.49c0-5.66 0-8.56 0.1-8.71 0.1-0.33 0.42-0.74 0.77-0.96l0.31-0.19h13.56v-0.887c0.1-2.002-0.16-1.942 6.57-1.912h5.1l0.25 0.14c0.3 0.16 0.54 0.4 0.7 0.712 0.11 0.2 0.12 0.44 0.14 3.687 0 3.82 0 3.96-0.34 4.41l-0.21 0.28v16.83l-0.18 0.31c-0.23 0.35-0.63 0.68-0.96 0.77-0.16 0-3.02 0.1-8.57 0.1h-8.34l-0.16 0.27c-1 1.69-3.26 2.75-5.27 2.48z" fill="#1c1e21"/><path d="m16.46 36.41c5.32-0.74 4.84-8.7-0.53-8.7-5.54 0-5.85 8.18-0.32 8.72h0.3s0.29 0 0.55-0.1z" fill="#d23638"/><path d="m14.01 34.51-0.15-0.16v-2.27c0-2.45 0-2.43 0.33-2.55 0.22-0.1 0.1-0.14 2.41 1.08 2.94 1.55 2.94 1.38-0.1 2.99-2.1 1.12-2.24 1.17-2.5 0.91z" fill="#1c1e21"/><path d="m16.66 32.39c0.67-0.34 0.78-0.21-0.83-1.05l-0.97-0.51v2.51l0.64-0.35c0.36-0.19 0.88-0.46 1.16-0.6z" fill="#fff"/><path d="m37.51 33.44 0.21-0.21v-16.3h-6.42l-1.09 1.1c-1.1 1.1-1.27 1.22-1.52 1.09-0.27-0.15-0.3-0.23-0.3-1.23v-0.96h-0.39c-1.06 0-1.49-0.59-1.49-2.04v-0.84h-5.44l-0.39 0.58c-0.21 0.32-0.43 0.62-0.48 0.66-0.1 0.1-0.93 0.1-3.75 0.1h-3.66v12.35l0.18-0.13c2.01-1.42 5.23-1.03 6.9 0.85 1.24 1.39 1.77 3.67 1.21 5.14 0 0.1 1.53 0.1 8.09 0.1h8.13z" fill="#e9f4fb"/><path d="m14.58 24.98-0.16-0.15v-7.46l0.31-0.31h4.22c4.54 0 4.36 0 4.49 0.34 0.1 0.23 0.1 7.17 0 7.4-0.13 0.35 0 0.33-4.49 0.34h-4.22z" fill="#1c1e21"/><path d="m18.35 23.34-0.8-0.8-0.6 0.63c-0.32 0.34-0.65 0.7-0.72 0.79l-0.12 0.18h3.04z" fill="#fff"/><path d="m22.5 23.6v-0.54l-0.92-0.97-0.93-0.97-0.58 0.62c-0.32 0.33-0.65 0.7-0.74 0.81l-0.16 0.21 0.65 0.68 0.65 0.69h2.03z" fill="#fff"/><path d="m16.74 21.96c0.75-0.8 0.83-0.82 1.37-0.3l0.37 0.35 0.76-0.83c1.46-1.58 1.29-1.55 2.43-0.41l0.83 0.83v-3.54h-7.08v5.29l0.36-0.37c0.19-0.21 0.62-0.67 0.95-1.02z" fill="#68af4c"/><path d="m17.46 20.95c-0.54-0.25-0.84-0.85-0.72-1.43 0.22-1.04 1.53-1.37 2.24-0.56 0.89 1.02-0.28 2.55-1.52 1.99z" fill="#1c1e21"/><path d="m18.17 20.03c0.32-0.23 0-0.72-0.33-0.5-0.25 0.16-0.13 0.6 0.15 0.6 0 0 0.1-0.1 0.18-0.1z" fill="#fff"/><path d="m34.46 15.94c3.52 0 3.56 0 3.68-0.14 0.14-0.16 0.22-6.547 0.1-7.007-0.11-0.38 0.1-0.37-5.44-0.35h-5.04l-0.12 0.14c-0.11 0.15-0.12 0.3-0.12 3.617 0 4.11-0.1 3.71 0.89 3.71 0.88 0 0.99 0.11 0.99 0.95v0.58l0.76-0.75 0.75-0.75z" fill="#f7d119"/><path d="m31.08 15.32c-0.1-0.1-0.17-0.28-0.28-0.8-0.1-0.38-0.17-0.75-0.18-0.82 0-0.1-0.1-0.14-0.28-0.17-0.62-0.1-0.76-0.39-0.76-1.65 0-1.6 0-1.64 2.16-1.64 1.86 0 3.3-0.23 3.38-0.527 0.15-0.54 0.18-0.6 0.35-0.69 0.23-0.12 0.46-0.1 0.63 0.14 0.19 0.25 0.19 5.227 0 5.477-0.29 0.36-0.83 0.16-0.91-0.34-0.1-0.37-0.67-0.61-1.83-0.72l-0.45-0.1v0.82c0 1.07 0 1.08-0.98 1.08-0.58 0-0.72 0-0.84-0.11z" fill="#1c1e21"/><path d="m35.22 11.88v-1.06l-0.49 0.15c-0.26 0.1-0.79 0.19-1.16 0.23l-0.67 0.1v1.28h0.27c0.35 0 1.27 0.16 1.59 0.27 0.48 0.18 0.46 0.23 0.46-0.94z" fill="#00aefc"/><path d="m31.9 11.88v-0.66h-1.32v1.32h1.32z" fill="#d23638"/><path d="m19.96 13.88c0.2-0.3 0.42-0.61 0.49-0.69l0.13-0.14h5.93v-1.81h-13.29l-0.21 0.22-0.22 0.21v2.76h6.81z" fill="#bbdfed"/><g fill="#1c1e21"><path d="m14.45 13.15c-0.35-0.36 0-0.93 0.5-0.81 0.53 0.14 0.4 0.96-0.15 0.96-0.12 0-0.25-0.1-0.35-0.15z"/><path d="m16.12 13.15c-0.4-0.44 0.13-1.09 0.61-0.75 0.41 0.28 0.22 0.88-0.28 0.89-0.12 0-0.24-0.1-0.33-0.14z"/><path d="m17.77 13.15c-0.35-0.36 0-0.92 0.48-0.81 0.55 0.12 0.44 0.96-0.13 0.96-0.12 0-0.25-0.1-0.35-0.15z"/></g></g><g transform="matrix(.1909 -.0511 .0511 .1909 9.519 21.48)"><path d="m73.98 176.5c-5.11-1.4-8.76-5.5-9.59-10.8-0.31-2-0.31-2-1.57-2.4-3.22-0.8-6.72-4.2-8.22-7.7-0.7-1.9-1.2-99.48-0.5-103.18 1.1-5 1.5-5.3 21.09-18.9 19.52-13.38 20.5-13.85 25.91-12.44 2.6 0.67 2.2 0.35 19.9 12.54 19.5 13.4 19.8 13.6 20.8 18 0.1 0.8 0.4 1.8 0.5 2.1 0 0.3 1.3 1.4 2.8 2.4 3.6 2.5 5.1 4 6.4 6.7 1.7 3.6 1.7 102.98 0 106.58-1.9 3.7-5.2 6.4-9.1 7.3-2.7 0.5-66.26 0.4-68.42-0.2z" fill="#1c1e21"/><path d="m143.3 171.3c1.6-0.8 3-2.3 3.7-3.8 1-1.8 1-99.71 0.1-101.91-0.6-1.4-2.5-3.5-3.9-4.2-0.7-0.4-0.7-0.4-0.7 45.21 0 32.6 0 46.1-0.3 47.2-1 4.7-4.3 8.4-8.7 9.7-2 0.6-2.9 0.7-33 0.7h-30.96l0.2 1.2c0.47 3 2.71 5.5 5.69 6.4 2.12 0.7 66.67 0.2 67.87-0.5z" fill="#967e32"/><path d="m133.3 158.3c1.7-0.9 3.3-2.6 4-4.5 0.6-1.7 0.5-98.98-0.1-100.78-0.8-2.4-2.2-3.5-18.9-14.9-22.16-15.26-17.3-15.26-39.72 0.2-16.97 11.6-17.28 11.9-18.22 13.7-0.79 1.4-1.26 98.88-0.55 101.58 0.51 1.8 2.08 3.6 3.96 4.6 2.48 1.4 66.93 1.4 69.53 0.1z" fill="#d7ba5e"/><g fill="#2e2713"><path d="m112.7 88.18c-1.7-1.64-1.3-2.43 3.8-7.57l4.6-4.64-4.6-4.59c-5-5.03-5.4-5.81-4-7.39 1.8-1.92 2.3-1.61 8.9 5.03 7.7 7.66 7.7 6.24 0.1 13.86-6.7 6.72-7.2 6.99-8.8 5.3z"/><path d="m91.92 88.28c-0.36-0.39-0.75-0.98-0.83-1.33-0.23-0.87 10.81-23.09 11.71-23.6 1.6-0.95 3.6 0.31 3.6 2.27 0 1.38-10.2 22.11-11.26 22.86-1.02 0.71-2.48 0.63-3.22-0.2z"/><path d="m76.37 83.45c-7.9-7.85-7.86-6.75 0-14.53 6.51-6.56 6.79-6.71 8.48-4.98 1.73 1.76 1.45 2.27-3.77 7.54l-4.64 4.67 4.64 4.67c5.14 5.19 5.46 5.81 3.89 7.38-1.73 1.73-2.36 1.38-8.6-4.75z"/><path d="m121.1 120c-1.4-0.7-1.5-1.5-1.5-7.3 0-4.7-0.1-5.4-0.5-5.4-2.6 0-2.6-3.2 0-5.8 4.6-4.58 5.6-3.09 5.6 8.5 0 10.1-0.5 11.6-3.6 10z"/><path d="m102.5 120.2c-7.76-1.4-9.01-16.7-1.7-20 6-2.73 10.9 1.5 11 9.5 0 7.6-3.5 11.5-9.3 10.5zm2.7-5.5c1.8-0.9 2.2-7.4 0.7-9.1-2.2-2.3-4.4-0.5-4.6 3.6-0.2 4.9 1.3 6.9 3.9 5.5z"/><path d="m87.28 119.9c-1.37-0.7-1.53-1.4-1.57-7.2 0-4.7 0-5.4-0.43-5.4-0.94 0-2-1.5-2-2.7 0-3 5.18-6.15 6.95-4.3 1.06 1.1 1.06 18.1 0 19.1-0.94 0.9-2.08 1.1-2.95 0.5z"/><path d="m74.28 120c-1.29-0.7-1.33-1.1-1.37-7 0-5-0.1-5.7-0.51-5.7-0.79 0-2.24-1.8-2.24-2.6 0-2.3 4.83-5.74 6.72-4.75 1.17 0.65 1.92 15.55 0.86 18.55-0.51 1.5-2.2 2.2-3.46 1.5z"/><path d="m121.2 148.6c-1.5-0.6-1.6-1.5-1.6-7.3 0-5.3 0-5.3-1-5.6-2.7-1.1-1.2-5.3 2.6-7.3 3-1.5 3.5-0.1 3.5 10 0 10.4-0.3 11.5-3.5 10.2z"/><path d="m108.7 148.8c-1.8-0.3-2-0.9-2-7 0-5.7 0-5.7-1-6.1-2.7-1.3-1.3-5.7 2.5-7.3 3.2-1.3 3.7 0.3 3.7 10.1 0 9.6-0.4 10.9-3.2 10.3z"/><path d="m89.44 148.7c-7.85-1.4-8.87-17.1-1.33-20 6.2-2.4 10.72 1.8 10.72 9.8 0 7.5-3.5 11.3-9.39 10.2zm3.81-6.4c1.57-3 0.12-8.9-2.12-8.9-3.42 0-4.08 9.7-0.75 10.2 1.03 0.2 2.44-0.4 2.87-1.3z"/><path d="m74.87 148.8c-1.8-0.3-1.96-0.9-1.96-7 0-5.7 0-5.7-1.02-6.1-2.75-1.3-1.42-5.4 2.35-7.2 3.22-1.5 3.85 0.1 3.85 10 0 9.6-0.39 10.9-3.22 10.3z"/></g><path transform="translate(.0053 .0057)" d="m96.39 52.19c-5.57-1.8-7.14-9.15-2.75-13.1 5.03-4.52 12.76-1.1 12.76 5.64 0 5.34-5 9.07-10.01 7.46z" fill="#1c1e21"/><path d="m100 47.01c2.3-1.18 1.4-4.75-1.17-4.75-1.93 0-3.14 1.96-2.28 3.65 0.75 1.45 2 1.85 3.45 1.1z" fill="#967e32"/></g></g></svg>
